<svg xmlns="http://www.w3.org/2000/svg" version="1.1" xmlns:xlink="http://www.w3.org/1999/xlink" xmlns:svgjs="http://svgjs.com/svgjs" width="1440" height="560" preserveAspectRatio="none" viewBox="0 0 1440 560"><g mask="url(&quot;#SvgjsMask1037&quot;)" fill="none"><rect width="1440" height="560" x="0" y="0" fill="url(#SvgjsLinearGradient1038)"></rect><path d="M720 658.62C821.15 660.43 912.58 614.76 991.56 551.56 1083.05 478.32 1183.49 396.79 1193.11 280 1203.21 157.43 1132.62 40.91 1040.25-40.25 953.24-116.68 835.77-137.96 720-135.58 607.12-133.27 493.12-106.58 412.61-27.39 331.52 52.37 288.47 166.64 297.52 280 305.98 386.11 378.67 470.98 457.96 542.04 531.98 608.37 620.62 656.86 720 658.62" fill="#1c538e"></path><path d="M720 524.99C785.45 526.16 844.61 496.61 895.71 455.71 954.92 408.33 1019.9 355.57 1026.13 280 1032.66 200.69 986.99 125.3 927.22 72.78 870.92 23.33 794.91 9.55 720 11.09 646.96 12.59 573.19 29.86 521.1 81.1 468.63 132.71 440.78 206.65 446.63 280 452.11 348.66 499.14 403.57 550.45 449.55 598.34 492.48 655.69 523.85 720 524.99" fill="#2774c6"></path><path d="M720 391.36C749.75 391.89 776.64 378.46 799.87 359.87 826.78 338.33 856.32 314.35 859.15 280 862.12 243.95 841.36 209.68 814.19 185.81 788.6 163.33 754.05 157.07 720 157.77 686.8 158.45 653.27 166.3 629.59 189.59 605.74 213.05 593.08 246.66 595.74 280 598.23 311.21 619.61 336.17 642.93 357.07 664.7 376.58 690.77 390.84 720 391.36" fill="#488fdb"></path></g><defs><mask id="SvgjsMask1037"><rect width="1440" height="560" fill="#ffffff"></rect></mask><linearGradient x1="15.28%" y1="-39.29%" x2="84.72%" y2="139.29%" gradientUnits="userSpaceOnUse" id="SvgjsLinearGradient1038"><stop stop-color="#0e2a47" offset="0"></stop><stop stop-color="rgba(5, 70, 154, 1)" offset="1"></stop></linearGradient></defs></svg>